<svg width="20px" height="40px" xmlns="http://www.w3.org/2000/svg" viewBox="0 0 141.732 141.732" enable-background="new 0 0 141.732 141.732" xml:space="preserve">
<symbol id="root" viewBox="0 0 141.732 141.732">
<path
              d="M121.846,14.023H19.117c-6.987,0-12.65,5.664-12.65,12.65v34.759c0,0.279,0.013,0.536,0.03,0.781
  c-0.019,0.606-0.03,1.223-0.03,1.857c0,35.355,28.661,64.015,64.016,64.015c34.973,0,63.376-28.049,63.986-62.877
  c0.018-0.235,0.029-0.483,0.029-0.762V26.674C134.498,19.688,128.833,14.023,121.846,14.023z M106.234,62.008L77.575,90.665
  c-1.937,1.938-4.568,2.747-7.093,2.443c-2.523,0.305-5.156-0.505-7.093-2.442L34.73,62.008c-3.349-3.349-3.349-8.778,0-12.126
  c3.349-3.349,8.779-3.349,12.127,0l23.625,23.624l23.624-23.624c3.35-3.349,8.779-3.349,12.128,0
  C109.582,53.229,109.582,58.66,106.234,62.008z"
            />
</symbol></svg> 
